<svg viewBox="0 0 64 64" xmlns="http://www.w3.org/2000/svg">
  <circle cx="32" cy="32" r="30" fill="#0d0d0d" stroke="#00E676" stroke-width="3"/>
  <polygon points="32,10 46,20 41,36 23,36 18,20" fill="#00E676"/>
  <polygon points="32,10 46,20 52,8 38,2" fill="#1a1a1a" stroke="#00E676" stroke-width="1.5"/>
  <polygon points="46,20 58,26 56,42 41,36" fill="#1a1a1a" stroke="#00E676" stroke-width="1.5"/>
  <polygon points="56,42 48,56 34,58 41,36" fill="#1a1a1a" stroke="#00E676" stroke-width="1.5"/>
  <polygon points="34,58 18,58 10,44 23,36 41,36" fill="#1a1a1a" stroke="#00E676" stroke-width="1.5"/>
  <polygon points="10,44 8,28 18,20 23,36" fill="#1a1a1a" stroke="#00E676" stroke-width="1.5"/>
  <polygon points="18,20 8,28 2,14 16,6" fill="#1a1a1a" stroke="#00E676" stroke-width="1.5"/>
</svg>
